#!OML:ASF F:\VICON\USERDATA\INSTALL\rory3\rory3.ASF
:FULLY-SPECIFIED
:DEGREES
157
root 13.4842 17.6302 -9.99268 4.83063 -51.464 -4.80472
lowerback 10.2721 2.35562 3.61328
upperback 1.89229 3.53922 1.56286
thorax -3.65869 1.70093 -0.86806
lowerneck -18.8102 -3.66755 -9.91822
upperneck 30.3093 -4.3873 6.4002
head 13.8151 -2.28544 3.48406
rclavicle 6.56983e-014 -3.18055e-015
rhumerus -35.9778 -4.04003 -80.0525
rradius 28.9503
rwrist 6.7667
rhand -15.3374 11.7004
rfingers 7.12502
rthumb 10.8394 -17.9999
lclavicle 6.56983e-014 -3.18055e-015
lhumerus -43.3492 5.47563 80.0591
lradius 30.2525
lwrist -8.03774
lhand -12.7276 25.3066
lfingers 7.12502
lthumb 13.3557 54.8586
rfemur 9.50793 -0.202207 29.5645
rtibia 14.0749
rfoot -19.597 -4.40972
rtoes 3.13738
lfemur -33.5268 -4.80133 -12.9633
ltibia 18.4191
lfoot -12.9281 9.15144
ltoes -17.1597
158
root 13.4201 17.6202 -9.92954 4.82741 -51.7165 -4.82419
lowerback 10.1572 2.49461 3.7735
upperback 1.93759 3.72785 1.42783
thorax -3.52096 1.79559 -1.11339
lowerneck -18.7419 -3.72932 -9.90061
upperneck 30.2785 -4.56236 6.61063
head 13.8103 -2.33166 3.53538
rclavicle -4.78077e-014 1.51076e-014
rhumerus -36.0072 -4.29101 -80.1724
rradius 29.0527
rwrist 6.65022
rhand -15.3071 11.7594
rfingers 7.12502
rthumb 10.8686 -17.9393
lclavicle -4.78077e-014 1.51076e-014
lhumerus -43.3331 5.15368 79.9805
lradius 30.126
lwrist -8.09783
lhand -12.2736 25.2149
lfingers 7.12502
lthumb 13.7933 54.7377
rfemur 10.1511 -0.0778823 29.4885
rtibia 13.5301
rfoot -19.5218 -4.31417
rtoes 2.6099
lfemur -33.4866 -5.10349 -12.7192
ltibia 18.1569
lfoot -12.8523 9.87967
ltoes -18.3246
159
root 13.3566 17.6103 -9.86781 4.91277 -52.0715 -4.85515
lowerback 10.1773 2.53373 3.61175
upperback 1.8088 3.7716 1.46291
thorax -3.67751 1.81538 -0.997603
lowerneck -18.6694 -3.63566 -9.81334
upperneck 30.4086 -4.4316 6.48247
head 13.8302 -2.28755 3.49477
rclavicle -4.76586e-014 0
rhumerus -36.2545 -3.78415 -80.318
rradius 29.2436
rwrist 6.4024
rhand -15.4221 11.6582
rfingers 7.12502
rthumb 10.7577 -18.0463
lclavicle -4.76586e-014 0
lhumerus -43.6887 5.34064 79.8652
lradius 29.9858
lwrist -8.11933
lhand -12.2478 24.9799
lfingers 7.12502
lthumb 13.8182 54.5009
rfemur 10.7152 0.165396 29.423
rtibia 12.9494
rfoot -19.3277 -4.20455
rtoes 2.04815
lfemur -33.5233 -5.37009 -12.4252
ltibia 17.9431
lfoot -12.9559 10.594
ltoes -17.501
160
root 13.2933 17.599 -9.80787 5.22338 -52.4065 -5.1055
lowerback 10.1191 2.55044 3.56836
upperback 1.7024 3.79508 1.54984
thorax -3.76425 1.82561 -0.886717
lowerneck -18.5762 -3.56205 -9.79364
upperneck 30.4336 -4.27504 6.27929
head 13.7986 -2.24795 3.43674
rclavicle 3.29983e-014 -5.1684e-015
rhumerus -36.4102 -3.312 -80.4557
rradius 29.3781
rwrist 6.2944
rhand -15.6649 11.5069
rfingers 7.12502
rthumb 10.5234 -18.2096
lclavicle 3.29983e-014 -5.1684e-015
lhumerus -44.0965 5.76461 79.6409
lradius 30.0093
lwrist -8.40055
lhand -12.0547 24.7723
lfingers 7.12502
lthumb 14.0043 54.2806
rfemur 11.1401 0.273317 29.4834
rtibia 12.4466
rfoot -19.2257 -4.01451
rtoes 1.57836
lfemur -33.6456 -5.53407 -11.9656
ltibia 17.7104
lfoot -13.3324 10.8323
ltoes -13.3213
161
root 13.2277 17.5847 -9.7454 5.50749 -52.7181 -5.366
lowerback 10.0182 2.6069 3.64315
upperback 1.67502 3.87565 1.58437
thorax -3.73123 1.86522 -0.898134
lowerneck -18.5445 -3.51924 -9.74894
upperneck 30.4106 -4.17811 6.12787
head 13.7668 -2.22134 3.38368
rclavicle 6.20208e-014 -6.36111e-015
rhumerus -36.4224 -3.08808 -80.5719
rradius 29.4586
rwrist 6.30475
rhand -15.7159 11.3968
rfingers 7.12502
rthumb 10.4742 -18.3223
lclavicle 6.20208e-014 -6.36111e-015
lhumerus -44.2791 5.85818 79.577
lradius 29.9962
lwrist -8.39912
lhand -12.0842 24.5183
lfingers 7.12502
lthumb 13.9759 54.0285
rfemur 11.6127 0.362818 29.5388
rtibia 11.9887
rfoot -19.1949 -3.78777
rtoes 1.52664
lfemur -33.7211 -5.38224 -11.6846
ltibia 17.4631
lfoot -13.5295 10.8156
ltoes -12.0121
162
root 13.1622 17.5637 -9.67868 5.63369 -53.0147 -5.49641
lowerback 9.87006 2.73262 3.78193
upperback 1.75367 4.0437 1.53741
thorax -3.54731 1.95097 -1.0336
lowerneck -18.6164 -3.58571 -9.82073
upperneck 30.3762 -4.27408 6.23006
head 13.7824 -2.25498 3.4198
rclavicle -7.05686e-015 2.18663e-014
rhumerus -36.3341 -3.22415 -80.5862
rradius 29.5006
rwrist 6.3163
rhand -15.4492 11.5183
rfingers 7.12502
rthumb 10.7314 -18.1876
lclavicle -7.05686e-015 2.18663e-014
lhumerus -44.1828 5.5259 79.7147
lradius 29.9151
lwrist -8.13033
lhand -12.6874 24.3855
lfingers 7.12502
lthumb 13.3946 53.9349
rfemur 12.1853 0.511245 29.528
rtibia 11.5211
rfoot -19.0731 -3.78597
rtoes 0.25675
lfemur -33.7226 -5.50053 -11.4128
ltibia 17.2199
lfoot -13.5139 11.1591
ltoes -12.4422
163
root 13.0942 17.5462 -9.60892 5.7143 -53.3585 -5.6305
lowerback 9.8028 2.86263 3.89766
upperback 1.81965 4.21892 1.47983
thorax -3.42093 2.03947 -1.17192
lowerneck -18.782 -3.66267 -9.82278
upperneck 30.4283 -4.38084 6.262
head 13.8534 -2.29487 3.41524
rclavicle 4.06515e-014 -1.43125e-014
rhumerus -36.339 -3.12637 -80.7483
rradius 29.6421
rwrist 6.08302
rhand -15.3278 11.615
rfingers 7.12502
rthumb 10.8486 -18.0848
lclavicle 4.06515e-014 -1.43125e-014
lhumerus -44.1883 5.36054 79.7014
lradius 29.9112
lwrist -8.09063
lhand -13.3684 24.3066
lfingers 7.12502
lthumb 12.738 53.898
rfemur 12.8021 0.630853 29.4776
rtibia 11.0836
rfoot -18.9314 -3.75005
rtoes -1.50861
lfemur -33.6099 -5.60467 -11.1524
ltibia 16.9917
lfoot -13.3857 11.5698
ltoes -12.6741
164
root 13.0225 17.5361 -9.53988 5.76957 -53.7718 -5.64049
lowerback 9.77321 2.99013 3.82911
upperback 1.7553 4.38102 1.41704
thorax -3.4644 2.11934 -1.21834
lowerneck -18.7453 -3.67583 -9.77904
upperneck 30.4035 -4.41925 6.26345
head 13.8373 -2.30666 3.40081
rclavicle -3.39425e-014 -1.59028e-014
rhumerus -36.5696 -2.91675 -80.9675
rradius 29.8452
rwrist 5.91755
rhand -15.3747 11.7609
rfingers 7.12502
rthumb 10.8034 -17.9412
lclavicle -3.39425e-014 -1.59028e-014
lhumerus -44.3663 5.42773 79.4867
lradius 29.9252
lwrist -7.98922
lhand -13.5736 24.4545
lfingers 7.12502
lthumb 12.5402 54.0582
rfemur 13.3287 0.768877 29.3272
rtibia 10.6626
rfoot -18.7517 -3.57271
rtoes -2.52595
lfemur -33.4955 -5.75788 -10.9112
ltibia 16.7878
lfoot -13.4173 11.9693
ltoes -12.448
165
root 12.9557 17.5224 -9.47436 5.99118 -54.0867 -5.7803
lowerback 9.71661 3.05747 3.8399
upperback 1.69514 4.47128 1.40121
thorax -3.48951 2.16316 -1.24994
lowerneck -18.7029 -3.65564 -9.85075
upperneck 30.3546 -4.41848 6.4136
head 13.8125 -2.29473 3.47344
rclavicle 6.14245e-014 -1.15295e-014
rhumerus -36.6584 -2.68298 -81.1364
rradius 29.9475
rwrist 5.94575
rhand -15.4662 11.5828
rfingers 7.12502
rthumb 10.715 -18.1239
lclavicle 6.14245e-014 -1.15295e-014
lhumerus -44.5028 5.63544 79.276
lradius 30.0078
lwrist -7.72971
lhand -13.2904 24.7366
lfingers 7.12502
lthumb 12.8133 54.3234
rfemur 13.8141 1.04411 29.3399
rtibia 10.1723
rfoot -18.528 -3.38945
rtoes -2.21381
lfemur -33.4777 -5.97966 -10.5492
ltibia 16.6199
lfoot -13.2309 12.3261
ltoes -13.4615
166
root 12.8906 17.5119 -9.40691 6.32313 -54.351 -6.03815
lowerback 9.653 3.09559 3.97612
upperback 1.67879 4.53244 1.38335
thorax -3.45631 2.19252 -1.34742
lowerneck -18.8401 -3.62847 -9.83829
upperneck 30.3682 -4.36134 6.39683
head 13.8413 -2.2684 3.47453
rclavicle -2.13544e-013 2.22639e-014
rhumerus -36.5797 -2.62746 -81.2469
rradius 29.9616
rwrist 6.15755
rhand -15.268 11.6626
rfingers 7.12502
rthumb 10.9063 -18.0342
lclavicle -2.13544e-013 2.22639e-014
lhumerus -44.5214 5.87357 79.0651
lradius 30.1486
lwrist -7.35239
lhand -12.6717 25.1993
lfingers 7.12502
lthumb 13.4096 54.7477
rfemur 14.2029 1.22553 29.4096
rtibia 9.81877
rfoot -18.2562 -3.2485
rtoes -3.23384
lfemur -33.4686 -6.25069 -10.124
ltibia 16.3864
lfoot -12.4358 12.9108
ltoes -17.5871
167
root 12.8207 17.5048 -9.33274 6.42947 -54.7008 -6.11828
lowerback 9.58093 3.19403 4.0416
upperback 1.72249 4.66114 1.31376
thorax -3.35334 2.25825 -1.46369
lowerneck -19.025 -3.62409 -9.81288
upperneck 30.3534 -4.33662 6.3888
head 13.8715 -2.25146 3.47038
rclavicle 1.33683e-014 1.31198e-014
rhumerus -36.445 -2.74316 -81.3351
rradius 29.894
rwrist 6.44114
rhand -15.1252 11.9763
rfingers 7.12502
rthumb 11.044 -17.7131
lclavicle 1.33683e-014 1.31198e-014
lhumerus -44.4247 5.99831 78.8743
lradius 30.2043
lwrist -7.1101
lhand -12.1735 25.6134
lfingers 7.12502
lthumb 13.8898 55.1295
rfemur 14.6088 1.47951 29.3138
rtibia 9.7117
rfoot -18.2307 -3.01425
rtoes -3.41158
lfemur -33.2463 -6.46029 -9.89338
ltibia 16.0689
lfoot -11.7464 13.4349
ltoes -20.5739
168
root 12.7483 17.4981 -9.2565 6.4605 -54.9791 -6.03042
lowerback 9.43938 3.3314 4.00914
upperback 1.71923 4.83127 1.24438
thorax -3.26617 2.34533 -1.52689
lowerneck -19.0456 -3.67718 -9.83319
upperneck 30.2734 -4.40391 6.40523
head 13.8498 -2.27799 3.46637
rclavicle 7.86193e-014 -7.95139e-015
rhumerus -36.4163 -2.93491 -81.3284
rradius 29.8511
rwrist 6.65248
rhand -15.0398 12.0976
rfingers 7.12502
rthumb 11.1264 -17.5874
lclavicle 7.86193e-014 -7.95139e-015
lhumerus -44.4563 6.1195 78.732
lradius 30.2381
lwrist -7.22873
lhand -12.2397 25.3899
lfingers 7.12502
lthumb 13.826 54.9104
rfemur 14.9633 1.66721 29.1082
rtibia 9.62005
rfoot -18.2892 -2.67513
rtoes -2.46291
lfemur -33.0547 -6.27427 -9.99907
ltibia 15.7406
lfoot -11.5587 13.3349
ltoes -21.8247
169
root 12.676 17.4889 -9.18289 6.63377 -55.2382 -5.97857
lowerback 9.37233 3.39343 3.78178
upperback 1.55 4.89847 1.28068
thorax -3.42422 2.3769 -1.37395
lowerneck -19.0073 -3.63094 -9.79856
upperneck 30.3168 -4.31028 6.27007
head 13.8459 -2.25386 3.42299
rclavicle 4.88016e-014 7.95139e-016
rhumerus -36.5762 -2.53384 -81.4045
rradius 29.8256
rwrist 6.71513
rhand -15.2277 12.2007
rfingers 7.12502
rthumb 10.9452 -17.494
lclavicle 4.88016e-014 7.95139e-016
lhumerus -44.7655 6.41113 78.6455
lradius 30.3279
lwrist -7.05263
lhand -12.5517 25.0864
lfingers 7.12502
lthumb 13.5253 54.6271
rfemur 15.1963 1.84814 28.9523
rtibia 9.46858
rfoot -18.0794 -2.60628
rtoes -3.5133
lfemur -33.0066 -6.24848 -9.96087
ltibia 15.4521
lfoot -11.5596 13.3072
ltoes -21.896
170
root 12.603 17.4818 -9.10407 6.84226 -55.4878 -6.00622
lowerback 9.10335 3.49233 3.87343
upperback 1.59843 5.02023 1.17906
thorax -3.2016 2.44216 -1.52139
lowerneck -19.2058 -3.67884 -9.75485
upperneck 30.2033 -4.36703 6.28312
head 13.8451 -2.26427 3.40705
rclavicle -6.04802e-014 -1.61016e-014
rhumerus -36.5148 -2.21168 -81.704
rradius 29.9577
rwrist 6.45582
rhand -15.523 12.0079
rfingers 7.12502
rthumb 10.6603 -17.7017
lclavicle -6.04802e-014 -1.61016e-014
lhumerus -44.5488 6.114 78.6996
lradius 30.3682
lwrist -6.58116
lhand -12.102 25.507
lfingers 7.12502
lthumb 13.9587 55.0184
rfemur 15.4246 2.02726 28.8344
rtibia 9.33211
rfoot -17.8744 -2.60481
rtoes -5.0423
lfemur -33.0151 -6.75566 -9.61122
ltibia 15.2377
lfoot -11.5631 13.7428
ltoes -20.9218
171
root 12.5297 17.4725 -9.01766 6.92666 -55.7528 -6.19003
lowerback 9.25337 3.53893 3.98563
upperback 1.56099 5.1019 1.19324
thorax -3.31105 2.47813 -1.58981
lowerneck -19.2343 -3.66418 -9.79858
upperneck 30.2169 -4.32507 6.2751
head 13.8539 -2.25225 3.41906
rclavicle -4.59193e-014 -1.5704e-014
rhumerus -36.6319 -1.87942 -81.8415
rradius 29.9678
rwrist 6.43675
rhand -15.6158 11.667
rfingers 7.12502
rthumb 10.5707 -18.0472
lclavicle -4.59193e-014 -1.5704e-014
lhumerus -44.6279 6.25513 78.5958
lradius 30.3082
lwrist -6.76302
lhand -11.6257 25.8751
lfingers 7.12502
lthumb 14.4177 55.3544
rfemur 15.962 2.20014 28.7712
rtibia 9.16119
rfoot -17.7424 -2.44855
rtoes -5.31748
lfemur -32.738 -7.05779 -9.34682
ltibia 15.1061
lfoot -11.7234 13.9155
ltoes -18.9154
